<svg xmlns="http://www.w3.org/2000/svg" viewBox="0 0 512 512" role="img" aria-label="LeadCommand">
  <defs>
    <radialGradient id="bg" cx="50%" cy="46%" r="74%">
      <stop offset="0%" stop-color="#101d3a"/>
      <stop offset="52%" stop-color="#060b17"/>
      <stop offset="100%" stop-color="#010207"/>
    </radialGradient>
    <linearGradient id="edge" x1="0" y1="0" x2="0" y2="1">
      <stop offset="0%" stop-color="#a9d6ff" stop-opacity=".42"/>
      <stop offset="45%" stop-color="#a9d6ff" stop-opacity=".06"/>
      <stop offset="100%" stop-color="#a9d6ff" stop-opacity=".16"/>
    </linearGradient>
    <linearGradient id="ring" x1="0" y1="0" x2="1" y2="1">
      <stop offset="0%" stop-color="#a8dcff"/>
      <stop offset="100%" stop-color="#2d6bff"/>
    </linearGradient>
    <linearGradient id="faceL" x1="0" y1="0" x2="0" y2="1">
      <stop offset="0%" stop-color="#8fd0ff" stop-opacity="0"/>
      <stop offset="45%" stop-color="#8fd0ff" stop-opacity=".75"/>
      <stop offset="100%" stop-color="#ffffff"/>
    </linearGradient>
    <linearGradient id="faceR" x1="0" y1="0" x2="0" y2="1">
      <stop offset="0%" stop-color="#1d4ed8" stop-opacity="0"/>
      <stop offset="45%" stop-color="#2563eb" stop-opacity=".8"/>
      <stop offset="100%" stop-color="#7cc4ff"/>
    </linearGradient>
    <radialGradient id="glow">
      <stop offset="0%" stop-color="#8fd0ff" stop-opacity=".7"/>
      <stop offset="40%" stop-color="#3b82ff" stop-opacity=".22"/>
      <stop offset="100%" stop-color="#2d6bff" stop-opacity="0"/>
    </radialGradient>
    <radialGradient id="core" cx="40%" cy="36%">
      <stop offset="0%" stop-color="#ffffff"/>
      <stop offset="40%" stop-color="#d4eeff"/>
      <stop offset="100%" stop-color="#2f74ff"/>
    </radialGradient>
    <filter id="soft" x="-60%" y="-60%" width="220%" height="220%"><feGaussianBlur stdDeviation="7"/></filter>
  </defs>
  <rect width="512" height="512" rx="0" fill="url(#bg)"/>
  <circle cx="256" cy="256" r="132" fill="url(#glow)"/>
  <circle cx="256" cy="256" r="148" fill="none" stroke="url(#ring)" stroke-opacity=".78" stroke-width="4.5" stroke-linecap="round" stroke-dasharray="202.48 30" stroke-dashoffset="217.48"/>
  <circle cx="256" cy="256" r="196" fill="none" stroke="#7cc4ff" stroke-opacity=".10" stroke-width="1.5"/>
  <g stroke="#a8dcff" stroke-opacity=".5" stroke-width="3.5" stroke-linecap="round"><line x1="369.1" y1="369.1" x2="379.0" y2="379.0"/><line x1="142.9" y1="369.1" x2="133.0" y2="379.0"/><line x1="142.9" y1="142.9" x2="133.0" y2="133.0"/><line x1="369.1" y1="142.9" x2="379.0" y2="133.0"/></g>
  <g>
    <g id="blade"><path d="M256 42 L239 48 L256 188 Z" fill="url(#faceL)"/><path d="M256 42 L273 48 L256 188 Z" fill="url(#faceR)"/></g>
    <use href="#blade" transform="rotate(90 256 256)"/>
    <use href="#blade" transform="rotate(180 256 256)"/>
    <use href="#blade" transform="rotate(270 256 256)"/>
  </g>
  <circle cx="256" cy="256" r="50" fill="none" stroke="#b9e2ff" stroke-opacity=".9" stroke-width="3"/>
  <circle cx="256" cy="256" r="62" fill="none" stroke="#5eb0ff" stroke-opacity=".22" stroke-width="1.5"/>
  <circle cx="256" cy="256" r="36" fill="#7cc4ff" opacity=".75" filter="url(#soft)"/>
  <circle cx="256" cy="256" r="27" fill="url(#core)"/>
  <circle cx="248" cy="247" r="7" fill="#ffffff" opacity=".85"/>
  
</svg>
